<svg xmlns="http://www.w3.org/2000/svg" width="55.397" height="48" viewBox="0 0 55.397 48">
  <g id="Icon_ionic-ios-construct" data-name="Icon ionic-ios-construct" transform="translate(-1.129 -3.375)">
    <path id="Path_1" data-name="Path 1" d="M26.719,4.528Z" transform="translate(16.404 0.739)" fill="#fff"/>
    <path id="Path_2" data-name="Path 2" d="M31.019,4.483a8.516,8.516,0,0,0-4.373-1.108,14.222,14.222,0,0,0-5.388,1.062A29.017,29.017,0,0,0,11.9,10.483a27.486,27.486,0,0,0-2.642,3.069c-.7,1,.219,2.423-.7,3.346s-2.85,0-2.85,0a.61.61,0,0,0-.45.185L1.319,20.994a.627.627,0,0,0,0,.9l7.327,7.281a.628.628,0,0,0,.45.185.61.61,0,0,0,.45-.185l3.831-4.015a.627.627,0,0,0,0-.9s-.612-.6-1.4-1.385.092-2.227.612-2.7a3.549,3.549,0,0,1,2.435-.785,4.545,4.545,0,0,1,1.315.208c1.408.392,2.977,1.835,5.873,4.708l-.45.75a1,1,0,0,0,.15,1.2s-.577-.565,1.512,1.512L29.2,22.321c-2.2-2.181-1.673-1.627-1.673-1.627a1.055,1.055,0,0,0-.727-.265,1.033,1.033,0,0,0-.485.115l-.646.346c-3.231-3.208-4.073-4.638-3.958-7.119.127-2.585,1.419-4.281,3.519-6.081,2.85-2.435,6.992-1.754,6.992-1.754C33.142,5.925,31.734,4.944,31.019,4.483Z" transform="translate(0 0)" fill="#fff"/>
    <path id="Path_3" data-name="Path 3" d="M40.538,33.333s-7.95-6.6-15.023-13.35l-5.5,5.838c6.75,6.992,13.258,14.723,13.258,14.723a.628.628,0,0,0,.45.185.61.61,0,0,0,.45-.185l6.358-6.312A.637.637,0,0,0,40.538,33.333Z" transform="translate(12.104 10.646)" fill="#fff"/>
    <path id="Path_4" data-name="Path 4" d="M51.665,12.281,45.619,18.35l-5.9-1.073-1.062-5.9,6.046-6.069a6.7,6.7,0,0,0-4.5-1.915,1.471,1.471,0,0,0-.231.012,11.035,11.035,0,0,0-6.912,3.427c-2.308,2.435-4.742,6.992-2.585,12.035a1.828,1.828,0,0,1-.312,2.273c-.173.162-1.142,1.085-2.6,2.458-.415.392-.854.808-1.338,1.269-.923.877-1.973,1.869-3.092,2.908-.438.415-.888.831-1.338,1.269C15.227,35.254,7.161,42.835,7.161,42.835A4.857,4.857,0,0,0,7.15,49.85a5.169,5.169,0,0,0,3.612,1.477,4.417,4.417,0,0,0,3.4-1.512s7.558-8.054,13.765-14.642c.427-.462.854-.9,1.269-1.35,1.073-1.142,2.077-2.2,2.977-3.15.45-.485.877-.935,1.269-1.338,1.327-1.408,2.227-2.354,2.423-2.538a1.785,1.785,0,0,1,1.281-.588,2.219,2.219,0,0,1,.992.277,8.112,8.112,0,0,0,3.738.842,12.408,12.408,0,0,0,8.319-3.4A10.7,10.7,0,0,0,53.615,17,6.33,6.33,0,0,0,51.665,12.281ZM12.227,46.988a1.615,1.615,0,1,1,0-2.285A1.63,1.63,0,0,1,12.227,46.988Z" transform="translate(2.904 0.014)" fill="#fff"/>
  </g>
</svg>
