<svg xmlns="http://www.w3.org/2000/svg" width="50.523" height="35.366" viewBox="0 0 50.523 35.366">
  <path id="Icon_awesome-truck-moving" data-name="Icon awesome-truck-moving" d="M49.046,18.457l-4.618-4.618a5.054,5.054,0,0,0-3.576-1.476h-2.96V4.776A2.523,2.523,0,0,0,35.366,2.25H2.526A2.523,2.523,0,0,0,0,4.776V31.3a6.3,6.3,0,0,0,11.368,3.758A6.3,6.3,0,0,0,22.735,31.3a6.653,6.653,0,0,0-.126-1.263H35.492a6.067,6.067,0,0,0-.126,1.263A6.315,6.315,0,1,0,48,31.3a6.653,6.653,0,0,0-.126-1.263H49.26a1.267,1.267,0,0,0,1.263-1.263v-6.75A5.036,5.036,0,0,0,49.046,18.457ZM6.315,33.827A2.526,2.526,0,1,1,8.841,31.3,2.534,2.534,0,0,1,6.315,33.827Zm10.1,0A2.526,2.526,0,1,1,18.946,31.3,2.534,2.534,0,0,1,16.42,33.827ZM37.892,16.144h2.96a1.254,1.254,0,0,1,.892.371l3.418,3.418H37.892Zm3.789,17.683A2.526,2.526,0,1,1,44.207,31.3,2.534,2.534,0,0,1,41.681,33.827Z" transform="translate(0 -2.25)" fill="#fff"/>
</svg>
