<svg xmlns="http://www.w3.org/2000/svg" width="57.483" height="55.088" viewBox="0 0 57.483 55.088">
  <path id="Icon_map-plumber" data-name="Icon map-plumber" d="M54.576,52.212c0-2.388-4.357-9.062-4.357-9.062S45.8,49.824,45.8,52.212a4.39,4.39,0,0,0,8.779,0Zm-31.5-37.394H14.294V6.163h2.394V1.44H.72V6.163h2.4V19.54a6.341,6.341,0,0,0,6.387,6.3H23.074V28.2h4.791V12.459H23.074ZM55.806,34.492V21.115a6.34,6.34,0,0,0-6.382-6.3H35.85V12.46H31.058V28.2H35.85V25.837H44.63v8.655H42.239v4.723H58.2V34.492h-2.4Z" transform="translate(-0.72 -1.44)" fill="#fff"/>
</svg>
