<svg xmlns="http://www.w3.org/2000/svg" width="53.104" height="70.805" viewBox="0 0 53.104 70.805">
  <path id="Icon_map-electrician" data-name="Icon map-electrician" d="M55.949,19.9H48.573V3.551a2.953,2.953,0,0,0-5.9,0V19.9h-23.6V3.551a2.953,2.953,0,0,0-5.9,0V19.9H5.8c-.816,0-1.475,1.282-1.475,2.064v7.082c0,8.5,14.751,18.359,14.751,32v4.579h5.9v5.9h11.8v-5.9h5.9V61.046c0-13.645,14.751-23.51,14.751-32V21.96c0-.782-.659-2.064-1.475-2.064M29.26,44.071a.424.424,0,0,0-.437-.572H23.092c-.339,0-.435-.192-.22-.441,0,0,11.808-14.986,12.038-15.275.174-.274.366-.178.305.137-.091.4-2.612,10.624-2.612,10.624-.122.3.055.53.389.53h5.734c.338,0,.445.227.239.484,0,0-11.826,15.344-12.038,15.6s-.412.178-.3-.258L29.26,44.071" transform="translate(-4.32 -0.72)" fill="#fff"/>
</svg>
