<svg xmlns="http://www.w3.org/2000/svg" width="41.17" height="54.895" viewBox="0 0 41.17 54.895">
  <path id="Icon_awesome-air-freshener" data-name="Icon awesome-air-freshener" d="M40.628,34.46l-10.1-10.444H35.8a1.791,1.791,0,0,0,1.486-2.952L25.137,7.5a5.087,5.087,0,0,0,.6-2.354,5.146,5.146,0,1,0-10.293,0,5.087,5.087,0,0,0,.6,2.354L3.883,21.065a1.791,1.791,0,0,0,1.486,2.952h5.277L.542,34.46c-1.26,1.3-.184,3.28,1.784,3.28H17.154v3.431H5.146a1.715,1.715,0,0,0-1.715,1.715V53.179a1.715,1.715,0,0,0,1.715,1.715H36.024a1.715,1.715,0,0,0,1.715-1.715V42.886a1.715,1.715,0,0,0-1.715-1.715H24.016V37.74H38.844C40.813,37.74,41.888,35.763,40.628,34.46ZM20.585,3.429a1.718,1.718,0,1,1-1.718,1.718A1.717,1.717,0,0,1,20.585,3.429ZM32.593,46.317v3.431H8.577V46.317Z" transform="translate(0)" fill="#fff"/>
</svg>
